# xmcd CD database file
#
# Track frame offsets:
#	182
#	28302
#	53717
#	73540
#	98880
#	120127
#	138202
#	161810
#	183295
#	204135
#	224467
#	247340
#
# Disc length: 3594 seconds
#
# Revision: 1
# Processed by: cddbd v1.5.1PL2 Copyright (c) Steve Scherf et al.
# Submitted via: CDex 1.50
#
DISCID=a90e080c
DTITLE=Compilation - Salsa de La Buena CD1
DYEAR=1900
DGENRE=Salsa
TTITLE0=Grupu Niche - Buenaventura y Caney
TTITLE1=Gabino Pampini - Cuerpo de Guitarra
TTITLE2=Grupo Gale - Mi Vecina
TTITLE3=Conjunto Chaney - Amigos
TTITLE4=Oscar D'Leon - Detalles
TTITLE5=Yo Que Te Ame - Yo que te Ame
TTITLE6=Ismael Miranda - Caretas
TTITLE7=La Identidad - Mujeres
TTITLE8=Melcochita - Pegaso
TTITLE9=Grupo Caneo - De Punta a Punta
TTITLE10=Lebron Brothers - Que Pena
TTITLE11=Juan Carlos Coronel - Y tu no Estas
EXTD=
EXTT0=
EXTT1=
EXTT2=
EXTT3=
EXTT4=
EXTT5=
EXTT6=
EXTT7=
EXTT8=
EXTT9=
EXTT10=
EXTT11=
PLAYORDER=
